<?xml version="1.0" encoding="UTF-8" standalone="no"?>
<!-- Created with Inkscape (http://www.inkscape.org/) -->

<svg
   width="1704.5125"
   height="854.63232"
   viewBox="0 0 1704.5125 854.63232"
   version="1.1"
   id="svg1"
   xml:space="preserve"
   xmlns="http://www.w3.org/2000/svg"
   xmlns:svg="http://www.w3.org/2000/svg"><defs
     id="defs1" /><g
     id="layer1"
     style="display:none"
     transform="translate(322.82113,-90.081642)"><text
       xml:space="preserve"
       style="font-style:normal;font-variant:normal;font-weight:bold;font-stretch:normal;font-size:651.773px;font-family:'League Spartan';-inkscape-font-specification:'League Spartan, Bold';font-variant-ligatures:normal;font-variant-caps:normal;font-variant-numeric:normal;font-variant-east-asian:normal;text-align:center;letter-spacing:-50.7px;writing-mode:lr-tb;direction:ltr;text-anchor:middle;opacity:1;fill:#003366;fill-opacity:1;stroke:none;stroke-width:48.883;stroke-linecap:round;stroke-linejoin:miter;stroke-dasharray:none;stroke-opacity:1;paint-order:fill markers stroke"
       x="542.4375"
       y="784.6731"
       id="text2"><tspan
         id="tspan2"
         x="517.08752"
         y="784.6731"
         style="letter-spacing:-50.7px;fill:#003366;fill-opacity:1;stroke-width:48.883">mural</tspan></text><text
       xml:space="preserve"
       style="font-style:normal;font-variant:normal;font-weight:bold;font-stretch:normal;font-size:399.811px;font-family:'League Spartan';-inkscape-font-specification:'League Spartan, Bold';font-variant-ligatures:normal;font-variant-caps:normal;font-variant-numeric:normal;font-variant-east-asian:normal;text-align:center;letter-spacing:-31.1005px;writing-mode:lr-tb;direction:ltr;text-anchor:middle;fill:#006633;fill-opacity:1;stroke:none;stroke-width:29.9859;stroke-linecap:round;stroke-linejoin:miter;stroke-dasharray:none;stroke-opacity:1;paint-order:fill markers stroke"
       x="1067.7698"
       y="1196.5361"
       id="text2-1"><tspan
         id="tspan2-7"
         x="1052.2195"
         y="1196.5361"
         style="letter-spacing:-31.1005px;fill:#006633;fill-opacity:1;stroke-width:29.9859">unb</tspan></text><g
       id="g4"
       transform="rotate(180,525.3748,605.74884)"><rect
         style="display:inline;opacity:1;fill:#003366;fill-opacity:1;stroke:none;stroke-width:4;stroke-linecap:round;stroke-linejoin:miter;stroke-dasharray:none;stroke-opacity:1;paint-order:fill markers stroke"
         id="rect3"
         width="776.83521"
         height="90.665077"
         x="931.26965"
         y="16.505795" /><rect
         style="opacity:1;fill:#006633;fill-opacity:1;stroke:none;stroke-width:3.95347;stroke-linecap:round;stroke-linejoin:miter;stroke-dasharray:none;stroke-opacity:1;paint-order:fill markers stroke"
         id="rect4"
         width="758.86646"
         height="90.665077"
         x="44.625435"
         y="-1707.6842"
         transform="rotate(90)" /></g><g
       id="g2"><rect
         style="display:inline;opacity:1;fill:#003366;fill-opacity:1;stroke:none;stroke-width:4;stroke-linecap:round;stroke-linejoin:miter;stroke-dasharray:none;stroke-opacity:1;paint-order:fill markers stroke"
         id="rect2"
         width="776.83521"
         height="90.665077"
         x="931.26965"
         y="16.505795" /><rect
         style="opacity:1;fill:#006633;fill-opacity:1;stroke:none;stroke-width:3.95347;stroke-linecap:round;stroke-linejoin:miter;stroke-dasharray:none;stroke-opacity:1;paint-order:fill markers stroke"
         id="rect2-2"
         width="758.86646"
         height="90.665077"
         x="44.625435"
         y="-1707.6842"
         transform="rotate(90)" /></g></g><g
     id="g31"
     style="display:none;fill:#00010f;fill-opacity:1"
     transform="translate(322.82113,-90.081642)"><text
       xml:space="preserve"
       style="font-style:normal;font-variant:normal;font-weight:bold;font-stretch:normal;font-size:651.773px;font-family:'League Spartan';-inkscape-font-specification:'League Spartan, Bold';font-variant-ligatures:normal;font-variant-caps:normal;font-variant-numeric:normal;font-variant-east-asian:normal;text-align:center;letter-spacing:-50.7px;writing-mode:lr-tb;direction:ltr;text-anchor:middle;opacity:1;fill:#00010f;fill-opacity:1;stroke:none;stroke-width:48.883;stroke-linecap:round;stroke-linejoin:miter;stroke-dasharray:none;stroke-opacity:1;paint-order:fill markers stroke"
       x="542.4375"
       y="784.6731"
       id="text26"><tspan
         id="tspan26"
         x="517.08752"
         y="784.6731"
         style="letter-spacing:-50.7px;fill:#00010f;fill-opacity:1;stroke-width:48.883">mural</tspan></text><text
       xml:space="preserve"
       style="font-style:normal;font-variant:normal;font-weight:bold;font-stretch:normal;font-size:399.811px;font-family:'League Spartan';-inkscape-font-specification:'League Spartan, Bold';font-variant-ligatures:normal;font-variant-caps:normal;font-variant-numeric:normal;font-variant-east-asian:normal;text-align:center;letter-spacing:-31.1005px;writing-mode:lr-tb;direction:ltr;text-anchor:middle;fill:#00010f;fill-opacity:1;stroke:none;stroke-width:29.9859;stroke-linecap:round;stroke-linejoin:miter;stroke-dasharray:none;stroke-opacity:1;paint-order:fill markers stroke"
       x="1067.7698"
       y="1196.5361"
       id="text27"><tspan
         id="tspan27"
         x="1052.2195"
         y="1196.5361"
         style="letter-spacing:-31.1005px;fill:#00010f;fill-opacity:1;stroke-width:29.9859">unb</tspan></text><g
       id="g28"
       transform="rotate(180,525.3748,605.74884)"
       style="fill:#00010f;fill-opacity:1"><rect
         style="display:inline;opacity:1;fill:#00010f;fill-opacity:1;stroke:none;stroke-width:4;stroke-linecap:round;stroke-linejoin:miter;stroke-dasharray:none;stroke-opacity:1;paint-order:fill markers stroke"
         id="rect27"
         width="776.83521"
         height="90.665077"
         x="931.26965"
         y="16.505795" /><rect
         style="opacity:1;fill:#00010f;fill-opacity:1;stroke:none;stroke-width:3.95347;stroke-linecap:round;stroke-linejoin:miter;stroke-dasharray:none;stroke-opacity:1;paint-order:fill markers stroke"
         id="rect28"
         width="758.86646"
         height="90.665077"
         x="44.625435"
         y="-1707.6842"
         transform="rotate(90)" /></g><g
       id="g30"
       style="fill:#00010f;fill-opacity:1"><rect
         style="display:inline;opacity:1;fill:#00010f;fill-opacity:1;stroke:none;stroke-width:4;stroke-linecap:round;stroke-linejoin:miter;stroke-dasharray:none;stroke-opacity:1;paint-order:fill markers stroke"
         id="rect29"
         width="776.83521"
         height="90.665077"
         x="931.26965"
         y="16.505795" /><rect
         style="opacity:1;fill:#00010f;fill-opacity:1;stroke:none;stroke-width:3.95347;stroke-linecap:round;stroke-linejoin:miter;stroke-dasharray:none;stroke-opacity:1;paint-order:fill markers stroke"
         id="rect30"
         width="758.86646"
         height="90.665077"
         x="44.625435"
         y="-1707.6842"
         transform="rotate(90)" /></g></g><g
     id="g9"
     style="display:inline"
     transform="matrix(0.72058394,0,0,0.72058394,473.67964,-11.89381)"><path
       d="m -330.88968,784.6731 h 115.36383 V 589.14119 c 0,-26.72269 14.99078,-56.05248 53.44538,-56.05248 41.0617,0 58.65957,29.32979 58.65957,62.57021 V 784.6731 H 11.942927 V 585.23055 c 1.303546,-25.41914 16.946098,-52.14184 53.445386,-52.14184 41.061697,0 58.659567,29.32979 58.659567,62.57021 V 784.6731 H 239.41171 V 564.37382 c 0,-93.20354 -69.08794,-123.83687 -130.3546,-123.83687 -36.499293,0 -75.605674,18.90141 -110.8014166,61.26666 -23.4638284,-44.97234 -72.3468044,-61.26666 -116.6673734,-61.26666 -36.49928,0 -69.73971,18.90141 -95.81063,44.97233 h -1.30354 V 450.31354 H -330.88968 Z M 369.25323,450.31354 H 253.88941 V 637.3724 c 0,112.10495 56.05248,157.07729 181.19289,157.07729 125.14042,0 181.1929,-44.97234 181.1929,-157.07729 V 450.31354 H 500.91138 v 159.03262 c 0,65.82907 -17.59787,91.24822 -65.82908,91.24822 -48.2312,0 -65.82907,-25.41915 -65.82907,-91.24822 z M 637.2703,784.6731 H 752.63412 V 608.69438 c 0,-8.47305 8.47305,-67.78439 68.43617,-67.78439 38.4546,0 59.96311,18.24964 59.96311,18.24964 l 48.2312,-97.76595 c 0,0 -29.98155,-20.85673 -72.99857,-20.85673 -65.82908,0 -102.32836,58.00779 -102.32836,58.00779 h -1.30355 v -48.2312 H 637.2703 Z M 881.82334,617.81921 c 0,97.76595 68.43616,176.63048 166.20216,176.63048 45.6241,0 84.7304,-20.20496 109.4978,-47.57943 h 1.3036 v 37.80284 h 114.0602 V 450.31354 h -115.3638 v 31.93688 c -27.3744,-26.72269 -64.5255,-41.71347 -109.4978,-41.71347 -97.766,0 -166.20216,79.5163 -166.20216,177.28226 z m 122.53336,0 c 0,-46.27589 34.5439,-78.86454 78.2127,-78.86454 43.017,0 77.561,32.58865 77.561,78.86454 0,45.62411 -32.5886,78.21276 -77.561,78.21276 -46.9276,0 -78.2127,-32.58865 -78.2127,-78.21276 z m 296.0435,166.85389 h 115.3639 V 224.14831 h -115.3639 z"
       id="text4"
       style="font-weight:bold;font-size:651.773px;font-family:'League Spartan';-inkscape-font-specification:'League Spartan, Bold';text-align:center;letter-spacing:-50.7px;text-anchor:middle;fill:#003366;stroke-width:48.883;stroke-linecap:round;paint-order:fill markers stroke"
       aria-label="mural" /><path
       d="m 789.81637,991.43309 h -70.76655 v 114.74571 c 0,68.7675 34.38375,96.3545 111.14746,96.3545 76.76371,0 111.14746,-27.587 111.14746,-96.3545 V 991.43309 h -70.76655 v 97.55391 c 0,40.3809 -10.7949,55.9735 -40.38091,55.9735 -29.58601,0 -40.38091,-15.5926 -40.38091,-55.9735 z M 954.2235,1196.5361 h 70.7665 v -115.9452 c 0,-20.3903 20.7902,-39.9811 41.9802,-39.9811 22.7892,0 36.7826,19.5908 36.7826,39.9811 v 115.9452 h 70.7666 V 1061.4 c 0,-57.173 -52.3753,-75.96408 -89.9575,-75.96408 -22.3894,0 -42.7798,11.59452 -58.7722,27.58698 h -0.7997 v -21.58981 h -70.7665 z m 473.0609,-102.3516 c 0,-59.9716 -41.9802,-108.74858 -101.9518,-108.74858 -27.587,0 -50.3762,9.19566 -67.1683,25.58788 V 852.69867 h -70.7665 v 343.83743 h 69.9669 v -23.189 h 0.7996 c 15.1929,16.7921 39.1815,29.1862 67.1683,29.1862 59.9716,0 101.9518,-48.3771 101.9518,-108.3488 z m -75.1645,0 c 0,27.9868 -19.1909,47.9773 -47.9773,47.9773 -27.587,0 -47.5775,-19.9905 -47.5775,-47.9773 0,-28.3866 21.19,-48.3771 47.5775,-48.3771 26.7873,0 47.9773,19.9905 47.9773,48.3771 z"
       id="text5"
       style="font-weight:bold;font-size:399.811px;font-family:'League Spartan';-inkscape-font-specification:'League Spartan, Bold';text-align:center;letter-spacing:-31.1005px;text-anchor:middle;fill:#006633;stroke-width:29.9859;stroke-linecap:round;paint-order:fill markers stroke"
       aria-label="unb" /><g
       id="g6"
       transform="rotate(180,525.3748,605.74884)"><rect
         style="display:inline;opacity:1;fill:#003366;fill-opacity:1;stroke:none;stroke-width:4;stroke-linecap:round;stroke-linejoin:miter;stroke-dasharray:none;stroke-opacity:1;paint-order:fill markers stroke"
         id="rect5"
         width="776.83521"
         height="90.665077"
         x="931.26965"
         y="16.505795" /><rect
         style="opacity:1;fill:#006633;fill-opacity:1;stroke:none;stroke-width:3.95347;stroke-linecap:round;stroke-linejoin:miter;stroke-dasharray:none;stroke-opacity:1;paint-order:fill markers stroke"
         id="rect6"
         width="758.86646"
         height="90.665077"
         x="44.625435"
         y="-1707.6842"
         transform="rotate(90)" /></g><g
       id="g8"><rect
         style="display:inline;opacity:1;fill:#003366;fill-opacity:1;stroke:none;stroke-width:4;stroke-linecap:round;stroke-linejoin:miter;stroke-dasharray:none;stroke-opacity:1;paint-order:fill markers stroke"
         id="rect7"
         width="776.83521"
         height="90.665077"
         x="931.26965"
         y="16.505795" /><rect
         style="opacity:1;fill:#006633;fill-opacity:1;stroke:none;stroke-width:3.95347;stroke-linecap:round;stroke-linejoin:miter;stroke-dasharray:none;stroke-opacity:1;paint-order:fill markers stroke"
         id="rect8"
         width="758.86646"
         height="90.665077"
         x="44.625435"
         y="-1707.6842"
         transform="rotate(90)" /></g></g><g
     id="g26"
     style="display:none;fill:#00010f;fill-opacity:1"
     transform="matrix(0.72058394,0,0,0.72058394,473.67964,-11.89381)"><text
       xml:space="preserve"
       style="font-style:normal;font-variant:normal;font-weight:bold;font-stretch:normal;font-size:651.773px;font-family:'League Spartan';-inkscape-font-specification:'League Spartan, Bold';font-variant-ligatures:normal;font-variant-caps:normal;font-variant-numeric:normal;font-variant-east-asian:normal;text-align:center;letter-spacing:-50.7px;writing-mode:lr-tb;direction:ltr;text-anchor:middle;opacity:1;fill:#00010f;fill-opacity:1;stroke:none;stroke-width:48.883;stroke-linecap:round;stroke-linejoin:miter;stroke-dasharray:none;stroke-opacity:1;paint-order:fill markers stroke"
       x="542.4375"
       y="784.6731"
       id="text21"><tspan
         id="tspan21"
         x="517.08752"
         y="784.6731"
         style="letter-spacing:-50.7px;fill:#00010f;fill-opacity:1;stroke-width:48.883">mural</tspan></text><text
       xml:space="preserve"
       style="font-style:normal;font-variant:normal;font-weight:bold;font-stretch:normal;font-size:399.811px;font-family:'League Spartan';-inkscape-font-specification:'League Spartan, Bold';font-variant-ligatures:normal;font-variant-caps:normal;font-variant-numeric:normal;font-variant-east-asian:normal;text-align:center;letter-spacing:-31.1005px;writing-mode:lr-tb;direction:ltr;text-anchor:middle;fill:#00010f;fill-opacity:1;stroke:none;stroke-width:29.9859;stroke-linecap:round;stroke-linejoin:miter;stroke-dasharray:none;stroke-opacity:1;paint-order:fill markers stroke"
       x="1067.7698"
       y="1196.5361"
       id="text22"><tspan
         id="tspan22"
         x="1052.2195"
         y="1196.5361"
         style="letter-spacing:-31.1005px;fill:#00010f;fill-opacity:1;stroke-width:29.9859">unb</tspan></text><g
       id="g23"
       transform="rotate(180,525.3748,605.74884)"
       style="fill:#00010f;fill-opacity:1"><rect
         style="display:inline;opacity:1;fill:#00010f;fill-opacity:1;stroke:none;stroke-width:4;stroke-linecap:round;stroke-linejoin:miter;stroke-dasharray:none;stroke-opacity:1;paint-order:fill markers stroke"
         id="rect22"
         width="776.83521"
         height="90.665077"
         x="931.26965"
         y="16.505795" /><rect
         style="opacity:1;fill:#00010f;fill-opacity:1;stroke:none;stroke-width:3.95347;stroke-linecap:round;stroke-linejoin:miter;stroke-dasharray:none;stroke-opacity:1;paint-order:fill markers stroke"
         id="rect23"
         width="758.86646"
         height="90.665077"
         x="44.625435"
         y="-1707.6842"
         transform="rotate(90)" /></g><g
       id="g25"
       style="fill:#00010f;fill-opacity:1"><rect
         style="display:inline;opacity:1;fill:#00010f;fill-opacity:1;stroke:none;stroke-width:4;stroke-linecap:round;stroke-linejoin:miter;stroke-dasharray:none;stroke-opacity:1;paint-order:fill markers stroke"
         id="rect24"
         width="776.83521"
         height="90.665077"
         x="931.26965"
         y="16.505795" /><rect
         style="opacity:1;fill:#00010f;fill-opacity:1;stroke:none;stroke-width:3.95347;stroke-linecap:round;stroke-linejoin:miter;stroke-dasharray:none;stroke-opacity:1;paint-order:fill markers stroke"
         id="rect25"
         width="758.86646"
         height="90.665077"
         x="44.625435"
         y="-1707.6842"
         transform="rotate(90)" /></g></g><g
     id="g14"
     style="display:none"
     transform="translate(322.82113,-90.081642)"><path
       d="M 219.4956,739.13696 H 351.08518 V 516.10377 c 0,-30.4812 17.09921,-63.93618 60.9624,-63.93618 46.83697,0 66.90996,33.45498 66.90996,71.37062 V 739.13696 H 610.54712 V 511.64311 c 1.48689,-28.99432 19.32955,-59.47552 60.96241,-59.47552 46.83697,0 66.90996,33.45498 66.90996,71.37062 V 739.13696 H 870.00907 V 487.8529 c 0,-106.31249 -78.80506,-141.25435 -148.68879,-141.25435 -41.63287,0 -86.23951,21.55987 -126.38548,69.88373 -26.76398,-51.29763 -82.52228,-69.88373 -133.07647,-69.88373 -41.63286,0 -79.54851,21.55987 -109.28626,51.29763 h -1.48689 V 357.75021 H 219.4956 Z"
       id="text9"
       style="font-weight:bold;font-size:743.444px;font-family:'League Spartan';-inkscape-font-specification:'League Spartan, Bold';text-align:center;letter-spacing:-57.8308px;text-anchor:middle;fill:#003366;stroke-width:55.7582;stroke-linecap:round;paint-order:fill markers stroke"
       aria-label="m" /><g
       id="g11"
       transform="matrix(-1.1319149,0,0,-1.1319149,1797.9595,1222.3232)"><rect
         style="display:inline;opacity:1;fill:#003366;fill-opacity:1;stroke:none;stroke-width:4;stroke-linecap:round;stroke-linejoin:miter;stroke-dasharray:none;stroke-opacity:1;paint-order:fill markers stroke"
         id="rect10"
         width="776.83521"
         height="90.665077"
         x="931.26965"
         y="16.505795" /><rect
         style="opacity:1;fill:#006633;fill-opacity:1;stroke:none;stroke-width:3.95347;stroke-linecap:round;stroke-linejoin:miter;stroke-dasharray:none;stroke-opacity:1;paint-order:fill markers stroke"
         id="rect11"
         width="758.86646"
         height="90.665077"
         x="44.625435"
         y="-1707.6842"
         transform="rotate(90)" /></g><g
       id="g15"
       transform="matrix(1.1319149,0,0,1.1319149,-749.8378,-149.3444)"><rect
         style="display:inline;opacity:1;fill:#003366;fill-opacity:1;stroke:none;stroke-width:4;stroke-linecap:round;stroke-linejoin:miter;stroke-dasharray:none;stroke-opacity:1;paint-order:fill markers stroke"
         id="rect14"
         width="776.83521"
         height="90.665077"
         x="931.26965"
         y="16.505795" /><rect
         style="opacity:1;fill:#006633;fill-opacity:1;stroke:none;stroke-width:3.95347;stroke-linecap:round;stroke-linejoin:miter;stroke-dasharray:none;stroke-opacity:1;paint-order:fill markers stroke"
         id="rect15"
         width="758.86646"
         height="90.665077"
         x="44.625435"
         y="-1707.6842"
         transform="rotate(90)" /></g></g><g
     id="g21"
     style="display:none;fill:#00010f;fill-opacity:1"
     transform="translate(322.82113,-90.081642)"><text
       xml:space="preserve"
       style="font-style:normal;font-variant:normal;font-weight:bold;font-stretch:normal;font-size:743.444px;font-family:'League Spartan';-inkscape-font-specification:'League Spartan, Bold';font-variant-ligatures:normal;font-variant-caps:normal;font-variant-numeric:normal;font-variant-east-asian:normal;text-align:center;letter-spacing:-57.8308px;writing-mode:lr-tb;direction:ltr;text-anchor:middle;opacity:1;fill:#00010f;fill-opacity:1;stroke:none;stroke-width:55.7582;stroke-linecap:round;stroke-linejoin:miter;stroke-dasharray:none;stroke-opacity:1;paint-order:fill markers stroke"
       x="541.03534"
       y="739.13696"
       id="text17"><tspan
         id="tspan17"
         x="512.11993"
         y="739.13696"
         style="letter-spacing:-57.8308px;fill:#00010f;fill-opacity:1;stroke-width:55.7582">m</tspan></text><g
       id="g18"
       transform="matrix(-1.1319149,0,0,-1.1319149,1797.9595,1222.3232)"
       style="fill:#00010f;fill-opacity:1"><rect
         style="display:inline;opacity:1;fill:#00010f;fill-opacity:1;stroke:none;stroke-width:4;stroke-linecap:round;stroke-linejoin:miter;stroke-dasharray:none;stroke-opacity:1;paint-order:fill markers stroke"
         id="rect17"
         width="776.83521"
         height="90.665077"
         x="931.26965"
         y="16.505795" /><rect
         style="opacity:1;fill:#00010f;fill-opacity:1;stroke:none;stroke-width:3.95347;stroke-linecap:round;stroke-linejoin:miter;stroke-dasharray:none;stroke-opacity:1;paint-order:fill markers stroke"
         id="rect18"
         width="758.86646"
         height="90.665077"
         x="44.625435"
         y="-1707.6842"
         transform="rotate(90)" /></g><g
       id="g20"
       transform="matrix(1.1319149,0,0,1.1319149,-749.8378,-149.3444)"
       style="fill:#00010f;fill-opacity:1"><rect
         style="display:inline;opacity:1;fill:#00010f;fill-opacity:1;stroke:none;stroke-width:4;stroke-linecap:round;stroke-linejoin:miter;stroke-dasharray:none;stroke-opacity:1;paint-order:fill markers stroke"
         id="rect19"
         width="776.83521"
         height="90.665077"
         x="931.26965"
         y="16.505795" /><rect
         style="opacity:1;fill:#00010f;fill-opacity:1;stroke:none;stroke-width:3.95347;stroke-linecap:round;stroke-linejoin:miter;stroke-dasharray:none;stroke-opacity:1;paint-order:fill markers stroke"
         id="rect20"
         width="758.86646"
         height="90.665077"
         x="44.625435"
         y="-1707.6842"
         transform="rotate(90)" /></g></g><g
     id="g13"
     transform="matrix(-1.1319149,0,0,-1.1319149,2120.7806,1132.2416)"
     style="display:none;fill:#00010f;fill-opacity:1"><rect
       style="display:inline;opacity:1;fill:#00010f;fill-opacity:1;stroke:none;stroke-width:4;stroke-linecap:round;stroke-linejoin:miter;stroke-dasharray:none;stroke-opacity:1;paint-order:fill markers stroke"
       id="rect12"
       width="776.83521"
       height="90.665077"
       x="931.26965"
       y="16.505795" /><rect
       style="opacity:1;fill:#00010f;fill-opacity:1;stroke:none;stroke-width:3.95347;stroke-linecap:round;stroke-linejoin:miter;stroke-dasharray:none;stroke-opacity:1;paint-order:fill markers stroke"
       id="rect13"
       width="758.86646"
       height="90.665077"
       x="44.625435"
       y="-1707.6842"
       transform="rotate(90)" /></g><g
     id="g10"
     transform="matrix(-1.1319149,0,0,-1.1319149,2120.7806,1132.2416)"
     style="display:none"><rect
       style="display:inline;opacity:1;fill:#003366;fill-opacity:1;stroke:none;stroke-width:4;stroke-linecap:round;stroke-linejoin:miter;stroke-dasharray:none;stroke-opacity:1;paint-order:fill markers stroke"
       id="rect1"
       width="776.83521"
       height="90.665077"
       x="931.26965"
       y="16.505795" /><rect
       style="opacity:1;fill:#006633;fill-opacity:1;stroke:none;stroke-width:3.95347;stroke-linecap:round;stroke-linejoin:miter;stroke-dasharray:none;stroke-opacity:1;paint-order:fill markers stroke"
       id="rect9"
       width="758.86646"
       height="90.665077"
       x="44.625435"
       y="-1707.6842"
       transform="rotate(90)" /></g></svg>
